<svg xmlns="http://www.w3.org/2000/svg" width="200" height="200" viewBox="0 0 200 200" version="1.1">
	<path d="M 81 33.868 C 74.950 35.397, 71 40.763, 71 47.455 C 71 51.545, 71.450 52.516, 74.750 55.553 C 79.426 59.857, 81.373 60.502, 85.065 58.973 C 88.468 57.564, 91.347 53.267, 92.965 47.185 C 94.560 41.186, 92.987 36.696, 88.552 34.591 C 84.989 32.901, 84.872 32.890, 81 33.868 M 81.021 37.116 C 77.454 38.539, 75 41.019, 75 43.200 C 75 44.837, 75.502 45.001, 78.750 44.419 C 80.813 44.049, 83.271 43.074, 84.213 42.252 C 87.014 39.808, 88.987 41.408, 89.103 46.219 L 89.207 50.500 90.207 46.731 C 91.527 41.758, 90.627 38.607, 87.477 37.171 C 84.488 35.809, 84.299 35.808, 81.021 37.116 M 131.250 42.648 C 128.350 44.077, 128 44.704, 128 48.470 C 128 54.351, 130.443 56.436, 136.530 55.750 C 141.799 55.156, 143.921 53.037, 143.968 48.323 C 143.991 46.057, 143.243 44.550, 141.365 43.073 C 138.221 40.600, 135.625 40.491, 131.250 42.648 M 131.452 46.433 C 129.094 50.032, 131.018 53.226, 135.294 52.808 C 141.606 52.192, 142.252 44, 135.988 44 C 133.975 44, 132.543 44.768, 131.452 46.433 M 77 52.467 C 77 54.174, 79.171 56, 81.200 56 C 83.243 56, 83.631 53.508, 81.768 52.356 C 79.825 51.156, 77 51.222, 77 52.467 M 159.174 64.314 C 155.048 68.707, 157.271 79, 162.346 79 C 165.211 79, 170.024 75.753, 170.608 73.427 C 172.727 64.983, 164.618 58.520, 159.174 64.314 M 160.998 69.005 C 159.482 72.665, 160.569 74.339, 164.135 73.835 C 166.107 73.556, 166.500 72.919, 166.500 70 C 166.500 67.202, 166.077 66.440, 164.392 66.199 C 162.839 65.977, 161.947 66.714, 160.998 69.005 M 95.500 70.073 C 88.371 72.880, 87.742 73.543, 82.759 83.521 C 75.655 97.743, 74.874 99.954, 73.721 109.087 C 72.773 116.593, 72.865 118.440, 74.429 123.413 C 76.404 129.694, 80.747 134.675, 86.821 137.628 C 92.312 140.297, 110.327 140.800, 117.672 138.490 C 127.042 135.542, 139.774 123.211, 142.852 114.101 C 144.678 108.696, 144.249 97.799, 141.934 90.771 C 138.763 81.143, 133.538 74.149, 127.020 70.809 C 122.010 68.241, 120.637 68.004, 111.020 68.052 C 103.009 68.092, 99.308 68.574, 95.500 70.073 M 104 71.374 C 92.383 73.608, 90.797 74.855, 84.968 86.333 C 79.727 96.654, 76 108.484, 76 114.800 C 76 116.715, 76.991 120.355, 78.202 122.890 C 80.460 127.618, 85.684 134, 87.295 134 C 87.792 134, 89.755 134.739, 91.658 135.642 C 96.589 137.982, 112.823 137.056, 119.626 134.047 C 125.028 131.658, 135.863 120.924, 139.064 114.790 C 142.236 108.711, 141.766 97.645, 137.981 89.297 C 133.644 79.733, 130.544 76.130, 124.256 73.350 C 117.354 70.297, 112.210 69.796, 104 71.374 M 51.079 74.272 C 48.252 75.706, 46.542 80.040, 47.421 83.543 C 47.970 85.727, 48.573 86, 52.859 86 C 57.054 86, 57.830 85.670, 58.839 83.453 C 60.337 80.165, 60.309 77.776, 58.750 75.792 C 56.931 73.478, 53.848 72.867, 51.079 74.272 M 51.200 77.200 C 50.540 77.860, 50 79.210, 50 80.200 C 50 81.585, 50.794 82, 53.441 82 C 57.315 82, 58.422 80.905, 57.497 77.991 C 56.788 75.755, 53.107 75.293, 51.200 77.200 M 107.286 83.522 C 102.682 85.457, 97.836 95.151, 102.335 93.425 C 103.034 93.157, 104.393 91.605, 105.355 89.976 C 106.317 88.347, 107.869 86.616, 108.802 86.128 C 111.239 84.856, 119.123 87.123, 121.893 89.893 C 123.554 91.554, 124.504 91.896, 125.287 91.113 C 128.828 87.572, 113.264 81.008, 107.286 83.522 M 164.250 99.662 C 162.508 100.365, 162.688 106.496, 164.557 110.111 C 165.794 112.502, 166.669 113.058, 168.807 112.811 C 173.081 112.317, 173.191 105.729, 169 101.230 C 166.869 98.943, 166.409 98.791, 164.250 99.662 M 121.063 102.424 C 120.355 103.277, 120.068 104.735, 120.425 105.665 C 121.015 107.202, 121.216 107.212, 122.645 105.783 C 123.748 104.681, 123.939 103.713, 123.284 102.542 C 122.444 101.041, 122.221 101.029, 121.063 102.424 M 166.032 105.191 C 166.014 106.121, 166.480 107.179, 167.067 107.541 C 168.829 108.630, 169.076 107.482, 167.521 105.427 C 166.241 103.735, 166.060 103.706, 166.032 105.191 M 103.598 109.163 C 101.204 112.581, 103.609 114.533, 106.569 111.574 C 107.983 110.160, 107.555 107, 105.950 107 C 105.490 107, 104.432 107.973, 103.598 109.163 M 55 117.315 C 50.437 119.469, 48.999 121.311, 49.022 124.972 C 49.052 129.754, 51.709 132.916, 56.324 133.665 C 59.556 134.190, 60.526 133.870, 63.050 131.452 C 65.507 129.098, 66 127.831, 66 123.870 C 66 120.088, 65.544 118.794, 63.777 117.557 C 61.185 115.741, 58.493 115.667, 55 117.315 M 54.084 122.411 C 51.271 125.405, 51.692 128.086, 55.243 129.788 C 59.881 132.011, 64.867 127.589, 63.566 122.407 C 62.720 119.038, 57.250 119.040, 54.084 122.411 M 138.724 137.250 C 136.710 138.768, 134 145.075, 134 148.245 C 134 157.439, 148.669 158.169, 153.149 149.198 C 154.665 146.164, 154.669 145.568, 153.209 141.851 C 152.246 139.398, 150.686 137.451, 149.245 136.903 C 145.859 135.616, 140.665 135.787, 138.724 137.250 M 140.627 141.250 C 138.553 144.538, 137.778 147.726, 138.500 150 C 139.174 152.122, 142.434 152.725, 143.542 150.932 C 143.905 150.344, 144.842 150.109, 145.624 150.409 C 147.473 151.119, 151 147.570, 151 145 C 151 139.819, 143.288 137.031, 140.627 141.250 M 86.742 149.255 C 84.199 151.325, 84.064 151.784, 85.009 155.142 C 86.393 160.059, 88.196 161.373, 92.461 160.573 C 95.440 160.014, 96.113 159.354, 97.117 156.005 C 99.415 148.334, 93.001 144.160, 86.742 149.255 M 91 150.770 C 89.277 151.379, 88.037 152.987, 88.015 154.643 C 87.987 156.723, 90.866 156.930, 93.201 155.014 C 95.237 153.345, 95.329 152.964, 94 151.684 C 93.175 150.890, 91.825 150.478, 91 150.770 M 143.813 199.683 C 144.534 199.972, 145.397 199.936, 145.729 199.604 C 146.061 199.272, 145.471 199.036, 144.417 199.079 C 143.252 199.127, 143.015 199.364, 143.813 199.683 M 151.250 199.735 C 153.863 199.941, 158.137 199.941, 160.750 199.735 C 163.363 199.529, 161.225 199.360, 156 199.360 C 150.775 199.360, 148.637 199.529, 151.250 199.735 M 184.750 199.737 C 187.637 199.939, 192.363 199.939, 195.250 199.737 C 198.137 199.535, 195.775 199.370, 190 199.370 C 184.225 199.370, 181.863 199.535, 184.750 199.737" stroke="none" fill="black" fill-rule="evenodd"/>
</svg>