<svg xmlns="http://www.w3.org/2000/svg" width="200" height="200" viewBox="0 0 200 200" version="1.1">
	<path d="M 99.500 40.967 C 93.096 41.708, 83.392 44.555, 81.124 46.359 C 79.675 47.512, 79.882 52.656, 81.972 67.500 C 83.757 80.180, 85.886 102.290, 86.544 115 C 86.900 121.875, 87.588 129.300, 88.071 131.500 C 88.555 133.700, 88.962 137.612, 88.976 140.193 C 89.004 145.620, 91.329 148, 96.600 148 C 100.375 148, 100.452 147.910, 106.481 136.500 C 109.097 131.550, 112.983 124.861, 115.118 121.636 C 117.253 118.411, 119 115.528, 119 115.230 C 119 114.933, 120.125 113.214, 121.500 111.411 C 122.875 109.608, 124 107.484, 124 106.689 C 124 105.895, 124.675 104.685, 125.500 104 C 126.325 103.315, 127 102.429, 127 102.031 C 127 101.632, 130.152 95.602, 134.005 88.631 C 143.601 71.268, 143.434 71.562, 144.030 71 C 145.506 69.606, 152.816 56.951, 154.309 53.204 C 157.542 45.089, 155.457 44.037, 131.241 41.560 C 115.266 39.927, 109.442 39.818, 99.500 40.967 M 95.139 46.756 L 90.778 48.259 91.388 53.880 C 91.724 56.971, 92.417 62.875, 92.928 67 C 96.066 92.313, 97.243 103.717, 97.703 113.250 C 98.074 120.938, 98.579 124, 99.478 124 C 101.163 124, 104.545 119.025, 114.304 102.192 C 117.497 96.686, 120.984 91.171, 122.054 89.937 C 123.124 88.703, 124 87.348, 124 86.926 C 124 86.002, 132.228 72.542, 139.543 61.500 C 142.459 57.100, 144.991 52.618, 145.172 51.540 C 145.678 48.514, 141.873 47.328, 127.731 46.105 C 111.177 44.672, 100.567 44.884, 95.139 46.756" stroke="none" fill="black" fill-rule="evenodd"/>
</svg>