<svg xmlns="http://www.w3.org/2000/svg" width="200" height="200" viewBox="0 0 200 200" version="1.1">
	<path d="M 87.803 38.175 C 85.986 38.547, 81.575 39.116, 78 39.440 C 58.329 41.222, 54.522 41.922, 52.750 44.085 C 51.788 45.260, 50.985 46.734, 50.967 47.361 C 50.536 62.380, 51.349 96.115, 52.416 107.500 C 54.882 133.806, 55.583 136, 61.524 136 C 63.437 136, 73.664 134.671, 84.251 133.046 C 116.114 128.156, 115.067 128.234, 132 129.497 C 138.326 129.970, 142.465 129.828, 144.389 129.075 L 147.279 127.943 146.389 121.722 C 145.900 118.300, 145.619 110.325, 145.764 104 C 146.019 92.863, 145.583 87.081, 142.408 59.500 C 140.317 41.338, 140.235 41.033, 137.157 39.910 C 135.696 39.377, 133.825 38.641, 133 38.275 C 131.017 37.394, 92.042 37.309, 87.803 38.175 M 95.500 43.949 C 91.650 44.310, 87.651 45.083, 86.614 45.668 C 85.214 46.458, 83.704 46.330, 80.756 45.172 C 77.101 43.736, 76.217 43.757, 69.643 45.431 C 58.837 48.182, 58.644 48.344, 59.323 54.075 C 59.640 56.753, 59.524 59.176, 59.066 59.459 C 58.608 59.742, 57.928 62.422, 57.554 65.415 C 57.041 69.517, 57.273 71.627, 58.495 73.990 C 59.869 76.648, 59.942 77.964, 58.971 82.642 C 56.858 92.816, 60.862 126.224, 64.432 128.222 C 66.303 129.269, 78.512 128.602, 87 126.990 C 89.475 126.520, 96.675 125.644, 103 125.043 C 124.486 123.003, 135.499 121.778, 135.924 121.381 C 137.679 119.742, 135.809 59.805, 133.743 51.500 C 132.555 46.720, 132.280 46.425, 127.500 44.794 C 122.233 42.996, 109.311 42.655, 95.500 43.949" stroke="none" fill="black" fill-rule="evenodd"/>
</svg>