<svg xmlns="http://www.w3.org/2000/svg" width="200" height="200" viewBox="0 0 200 200" version="1.1">
	<path d="M 87.909 40.982 C 67.179 43.653, 51.313 67.419, 54.971 90.319 C 57.404 105.546, 70.571 123.416, 82.570 127.775 C 87.893 129.709, 99.428 129.599, 106.487 127.547 C 112.601 125.769, 112.913 125.603, 125.500 117.410 C 129.900 114.547, 134.400 112.039, 135.500 111.838 C 139.525 111.103, 141.340 99.472, 139.890 83.694 C 139.187 76.032, 138.423 73.529, 134.016 64.437 C 129.377 54.867, 128.429 53.607, 122.766 49.487 C 112.453 41.982, 101.286 39.258, 87.909 40.982 M 85 44.731 C 81.959 45.288, 71.330 52.368, 68.307 55.850 C 62.351 62.709, 58 75.034, 58 85.045 C 58 96.112, 64.015 108.823, 73.731 118.288 C 80.686 125.064, 88.362 127.365, 98.940 125.846 C 105.524 124.900, 114.853 121.461, 117.301 119.078 C 117.741 118.649, 114.968 118.036, 111.138 117.715 C 98.335 116.641, 89.419 110.722, 84.768 100.209 C 83.140 96.529, 82.854 94.243, 83.248 88.087 C 83.939 77.297, 87.083 69.635, 92.209 66.243 C 95.877 63.816, 97.114 63.574, 105.871 63.572 C 117.403 63.570, 121.906 65.320, 130.443 73.122 C 137.313 79.401, 137.697 77.865, 132.114 66.447 C 127.333 56.670, 121.775 51.132, 112.657 47.058 C 106.516 44.314, 104.873 44.014, 96.657 44.136 C 91.621 44.211, 86.375 44.479, 85 44.731 M 100.500 67.676 C 96.946 68.673, 90.980 74.119, 88.834 78.326 C 87.070 81.783, 86.825 83.618, 87.267 90.058 C 88.038 101.309, 91.728 107.223, 100.360 111.041 C 107.881 114.368, 113.957 114.646, 120.706 111.974 C 123.893 110.712, 127.210 109.076, 128.079 108.340 C 128.947 107.603, 129.992 107, 130.400 107 C 131.444 107, 133.476 104.847, 134.842 102.295 C 136.543 99.117, 136.152 90.152, 134.091 85.069 C 131.613 78.958, 124.016 71.536, 118.198 69.543 C 113.057 67.782, 103.659 66.790, 100.500 67.676" stroke="none" fill="black" fill-rule="evenodd"/>
</svg>