<svg xmlns="http://www.w3.org/2000/svg" width="200" height="200" viewBox="0 0 200 200" version="1.1">
	<path d="M 114 77.051 C 106.942 78.707, 93.991 82.958, 91.777 84.346 C 90.525 85.131, 87.143 86.534, 84.262 87.463 C 81.381 88.393, 78.788 89.534, 78.500 90 C 78.212 90.466, 75.619 91.614, 72.738 92.552 C 69.857 93.490, 66.825 94.828, 66 95.526 C 62.768 98.260, 50.103 103.291, 42.517 104.855 C 35.309 106.340, 34.439 106.772, 33.555 109.303 C 31.875 114.117, 31.631 113.948, 66 131.778 C 69.025 133.347, 78.679 138.349, 87.454 142.892 C 96.228 147.436, 104.553 151.960, 105.954 152.946 C 107.354 153.931, 109.625 155.075, 111 155.487 C 112.375 155.899, 114.175 156.800, 115 157.488 C 115.825 158.176, 117.768 158.966, 119.317 159.244 C 121.758 159.681, 122.484 159.198, 124.757 155.624 C 127.999 150.528, 128.581 144.298, 127.149 130.038 C 126.149 120.076, 126.203 119.408, 128.270 116.064 C 130.127 113.059, 130.498 110.711, 130.837 99.807 C 131.292 85.232, 130.691 80.691, 127.944 77.944 C 125.857 75.857, 120.542 75.516, 114 77.051 M 117 85.725 C 109.941 86.468, 100.942 88.285, 100.461 89.063 C 100.161 89.549, 96.917 90.872, 93.252 92.004 C 89.588 93.136, 85.872 94.711, 84.995 95.505 C 84.118 96.298, 81.615 97.577, 79.432 98.348 C 77.249 99.118, 73.678 100.705, 71.496 101.874 C 69.315 103.043, 66.848 104.002, 66.015 104.004 C 65.182 104.006, 61.800 105.354, 58.500 107 C 55.200 108.646, 51.986 109.994, 51.357 109.996 C 50.061 110.001, 48.744 112.777, 49.476 113.961 C 49.741 114.390, 53.230 116.412, 57.229 118.454 C 61.228 120.497, 65.625 122.791, 67 123.552 C 68.375 124.314, 74.450 127.280, 80.500 130.143 C 93.347 136.224, 108.114 144.308, 112.772 147.810 C 115.930 150.185, 116.112 150.208, 118.022 148.480 C 119.110 147.496, 120 145.747, 120.001 144.595 C 120.001 143.443, 120.724 139.125, 121.606 135 C 122.488 130.875, 123.183 123.675, 123.149 119 C 123.115 114.325, 123.586 108.025, 124.196 105 C 125.312 99.455, 125.529 88.665, 124.555 87.090 C 123.900 86.029, 120.297 85.378, 117 85.725" stroke="none" fill="black" fill-rule="evenodd"/>
</svg>