<svg xmlns="http://www.w3.org/2000/svg" width="200" height="200" viewBox="0 0 200 200" version="1.1">
	<path d="M 105 56.139 C 103.625 56.763, 100.478 58.166, 98.006 59.257 C 84.271 65.317, 74.495 75.826, 72.369 86.816 C 70.039 98.860, 72.891 109.376, 82.289 123.400 C 85.569 128.295, 88.564 133.470, 88.943 134.900 C 89.797 138.120, 94.664 139.932, 104.290 140.614 C 114.906 141.367, 124.856 139.554, 134.313 135.143 C 143.957 130.646, 148.569 126.906, 153.019 119.971 C 162.217 105.636, 162.413 87.408, 153.513 74.020 C 145.555 62.049, 133.899 56.105, 117 55.400 C 111.183 55.157, 106.531 55.443, 105 56.139 M 110.500 57.700 C 108.850 57.931, 103.409 60.093, 98.408 62.505 C 83.628 69.634, 75 80.734, 75 92.619 C 75 99.403, 80.892 118.441, 82.496 116.838 C 82.691 116.642, 83.106 113.561, 83.417 109.991 C 85.206 89.462, 101.032 78.922, 121.678 84.511 C 126.685 85.866, 129.302 87.285, 132.539 90.398 C 136.481 94.190, 136.857 95.008, 137.516 101.232 C 138.380 109.388, 137.638 113.807, 134.299 120.396 C 130.760 127.380, 128.063 130.848, 124.018 133.617 L 120.536 136 123.481 136 C 128.084 136, 142.546 128.349, 146.356 123.898 C 148.178 121.769, 151.110 117.071, 152.871 113.459 C 155.793 107.466, 156.085 105.999, 156.199 96.696 C 156.338 85.430, 155.113 81.385, 149.084 73.201 C 141.867 63.405, 123.228 55.917, 110.500 57.700 M 104.824 87.809 C 96.126 90.400, 91.126 95.471, 88.478 104.385 C 86.674 110.460, 87.706 117.212, 91.741 125.734 C 95.432 133.530, 98.835 136.005, 105.827 135.978 C 112.942 135.950, 119.098 133.264, 124.782 127.707 C 128.196 124.369, 129.580 121.896, 131.608 115.510 C 134.658 105.905, 134.295 101.743, 129.845 95.275 C 124.658 87.735, 114.874 84.816, 104.824 87.809" stroke="none" fill="black" fill-rule="evenodd"/>
</svg>