<svg xmlns="http://www.w3.org/2000/svg" width="200" height="200" viewBox="0 0 200 200" version="1.1">
	<path d="M 96.569 48.601 C 91.227 49.893, 86.818 51.855, 73.224 58.991 C 63.559 64.063, 44.662 88.344, 44.421 96 C 44.378 97.375, 44.048 100.075, 43.688 102 C 42.434 108.700, 45.016 113.520, 56 124.987 C 63.281 132.588, 72.580 136.158, 85.097 136.158 C 94.640 136.158, 102.837 134.566, 109.568 131.406 C 119.959 126.528, 133.929 107.973, 136.984 94.990 C 137.695 91.971, 138.613 88.090, 139.025 86.367 C 139.999 82.291, 138.898 76.615, 136.043 71 C 132.008 63.063, 123.970 53.064, 119.638 50.592 C 114.228 47.506, 104.547 46.670, 96.569 48.601 M 95 52.648 C 87.184 55.553, 65.650 72.558, 60.686 79.744 C 59.259 81.810, 56.201 87.539, 53.892 92.475 L 49.693 101.450 50.923 107.406 C 52.531 115.189, 56.563 120.875, 63.997 125.839 C 75.695 133.651, 89.456 135.089, 101 129.705 C 109.723 125.637, 119.065 115.755, 124.827 104.500 C 129.402 95.563, 129.956 93.644, 131.060 82.882 C 132.029 73.442, 131.964 72.750, 129.536 66.682 C 128.141 63.196, 126.994 59.928, 126.988 59.422 C 126.968 57.968, 120.290 54.018, 116.731 53.355 C 112.078 52.489, 96.768 51.990, 95 52.648" stroke="none" fill="black" fill-rule="evenodd"/>
</svg>