<svg xmlns="http://www.w3.org/2000/svg" width="500" height="500" viewBox="0 0 500 500" version="1.1">
	<path d="M 243.500 186 C 241.850 186.420, 235.088 186.817, 228.473 186.882 C 212.839 187.035, 211.977 187.557, 212.060 196.807 C 212.092 200.488, 212.549 205.750, 213.073 208.500 C 215.078 219.004, 216.909 247.379, 216.954 268.614 L 217 290.728 221.640 291.364 C 228.735 292.337, 237.234 291.994, 251.500 290.161 L 264.500 288.491 264.822 272.996 C 264.999 264.473, 264.549 250.525, 263.822 242 C 263.095 233.475, 262.566 217.500, 262.647 206.500 C 262.751 192.407, 262.455 186.283, 261.647 185.765 C 260.186 184.830, 247.452 184.994, 243.500 186 M 238 193.042 C 234.975 193.460, 229.225 193.847, 225.222 193.901 L 217.944 194 218.570 200.750 C 218.915 204.463, 219.652 209.300, 220.209 211.500 C 221.608 217.027, 223.138 240.580, 223.669 264.750 L 224.114 285 233.807 284.937 C 239.138 284.903, 246.831 284.340, 250.902 283.687 L 258.304 282.500 258.116 261 C 257.999 247.614, 257.328 235.349, 256.337 228.500 C 254.792 217.824, 254.919 197.981, 256.559 193.706 C 257.140 192.192, 256.440 192.016, 250.357 192.141 C 246.586 192.218, 241.025 192.624, 238 193.042" stroke="none" fill="black" fill-rule="evenodd"/>
</svg>