<svg xmlns="http://www.w3.org/2000/svg" width="200" height="200" viewBox="0 0 200 200" version="1.1">
	<path d="M 107.436 70.951 C 97.120 72.551, 87.481 77.121, 84.770 81.697 C 82.338 85.802, 80.008 98.553, 79.312 111.571 C 78.348 129.599, 81.650 135.609, 99.156 147.696 L 106.681 152.891 113.222 151.523 C 120.350 150.031, 128.552 146.293, 131.136 143.358 C 135.375 138.544, 141.355 122.296, 144.058 108.250 C 146.295 96.621, 143.942 88.806, 135.801 80.832 C 127.385 72.589, 117.986 69.314, 107.436 70.951 M 99.647 76.245 C 90.366 79.108, 87.763 81.879, 86.145 90.617 C 85.444 94.403, 84.450 99.660, 83.935 102.299 C 82.457 109.887, 82.873 121.935, 84.792 127.087 C 87.176 133.488, 89.319 135.832, 99.337 142.998 C 108.097 149.264, 108.098 149.264, 113.530 148.625 C 118.942 147.989, 124.484 145.530, 127.932 142.234 C 130.739 139.551, 133.030 134.430, 136.538 123 C 140.935 108.675, 142.281 101.623, 141.501 97.007 C 140.164 89.091, 132.392 80.803, 121.799 75.995 C 116.200 73.454, 108.410 73.542, 99.647 76.245" stroke="none" fill="black" fill-rule="evenodd"/>
</svg>