<svg xmlns="http://www.w3.org/2000/svg" width="200" height="200" viewBox="0 0 200 200" version="1.1">
	<path d="M 61.280 42.020 C 58.426 43.169, 58.236 44.287, 57.562 64 C 57.252 73.075, 56.581 82.300, 56.071 84.500 C 55.562 86.700, 55.450 93.225, 55.822 99 C 56.195 104.775, 56.246 111.975, 55.935 115 C 55.624 118.025, 55.633 126.649, 55.953 134.165 C 56.443 145.629, 56.840 148.166, 58.423 149.915 C 61.577 153.400, 65.905 152.578, 78.257 146.147 C 84.441 142.928, 93.189 139.074, 97.697 137.583 C 102.206 136.091, 106.931 134.062, 108.197 133.073 C 111.133 130.781, 118.553 127, 120.116 127 C 120.773 127, 122.705 125.937, 124.409 124.638 C 129.337 120.878, 141.222 115.908, 154.715 111.963 C 162.245 109.762, 165.759 107.330, 166.224 104 C 166.803 99.853, 164.402 96.371, 159.277 93.924 C 153.828 91.322, 141.996 84.109, 140.500 82.477 C 139.175 81.031, 132.275 76, 131.617 76 C 131.333 76, 129.100 74.650, 126.655 73 C 124.210 71.350, 121.782 70, 121.260 70 C 120.737 70, 119.489 69.092, 118.485 67.983 C 117.481 66.874, 112.798 64.070, 108.080 61.753 C 103.361 59.436, 96.582 55.843, 93.016 53.770 C 89.450 51.696, 85.539 50, 84.325 50 C 83.111 50, 81.865 49.590, 81.556 49.090 C 80.490 47.366, 67.927 41, 65.716 41.063 C 64.497 41.098, 62.501 41.529, 61.280 42.020 M 71.903 57.750 C 71.268 59.419, 70.938 68.757, 71.065 81.500 C 71.190 94.090, 70.861 103.513, 70.245 105.031 C 69.056 107.956, 68.690 113.747, 68.871 126.750 C 68.985 134.960, 69.203 136, 70.809 136 C 71.804 136, 73.491 135.339, 74.559 134.532 C 75.626 133.724, 77.238 133.049, 78.140 133.032 C 79.042 133.014, 82.967 131.425, 86.863 129.500 C 90.758 127.575, 94.201 126, 94.514 126 C 94.828 126, 95.628 125.548, 96.292 124.997 C 102.111 120.162, 113.548 114, 116.701 114 C 117.746 114, 119.040 113.560, 119.578 113.022 C 120.116 112.484, 123.018 111.168, 126.028 110.096 C 129.038 109.025, 133.975 107.230, 137 106.107 C 140.025 104.984, 143.457 104.051, 144.628 104.033 C 146.897 103.998, 149.634 101.506, 148.299 100.690 C 147.859 100.422, 143 97.836, 137.500 94.944 C 132 92.053, 125.220 87.965, 122.433 85.862 C 119.647 83.758, 115.147 80.859, 112.433 79.420 C 107.484 76.795, 94.373 67.645, 92.500 65.509 C 91.950 64.882, 88.410 62.261, 84.634 59.684 C 76.620 54.217, 73.433 53.733, 71.903 57.750" stroke="none" fill="black" fill-rule="evenodd"/>
</svg>