<svg xmlns="http://www.w3.org/2000/svg" width="200" height="200" viewBox="0 0 200 200" version="1.1">
	<path d="M 51.119 58.532 C 47.860 59.960, 47.761 60.166, 48.375 64.257 C 48.726 66.591, 49.446 75.025, 49.976 83 C 51.899 111.943, 52.202 113.047, 57.628 110.914 C 60.717 109.700, 93.282 110.395, 104.463 111.913 C 109.924 112.655, 110.717 113.092, 113.891 117.111 C 118.471 122.910, 136.191 139.995, 137.628 139.998 C 138.248 139.999, 139.203 139.438, 139.749 138.750 C 140.296 138.063, 141.318 123.325, 142.020 106 C 143.250 75.655, 143.163 61.830, 141.733 60.400 C 140.820 59.486, 107.921 57.955, 78.500 57.457 C 58.827 57.123, 53.890 57.317, 51.119 58.532 M 53.481 62.031 C 53.174 62.528, 53.178 65.087, 53.490 67.717 C 53.802 70.348, 54.466 79.860, 54.967 88.855 C 55.467 97.850, 56.048 105.381, 56.258 105.591 C 56.468 105.801, 63.133 106.162, 71.070 106.393 C 79.006 106.623, 92.173 107.150, 100.329 107.562 C 114.843 108.296, 115.193 108.367, 116.795 110.906 C 119.789 115.653, 124.627 121.812, 129.864 127.541 C 136.891 135.230, 137.648 134.449, 137.894 119.251 C 137.998 112.788, 138.501 99.850, 139.012 90.500 C 140.068 71.172, 139.547 63.446, 137.119 62.448 C 134.581 61.405, 54.115 61.004, 53.481 62.031" stroke="none" fill="black" fill-rule="evenodd"/>
</svg>