<svg xmlns="http://www.w3.org/2000/svg" width="200" height="200" viewBox="0 0 200 200" version="1.1">
	<path d="M 94 52.654 C 88.206 54.572, 82.281 58.721, 74.021 66.645 C 61.207 78.939, 57.694 85.601, 57.179 98.587 C 56.807 107.958, 58.576 116.353, 62.769 125.120 C 66.054 131.989, 76.672 143.800, 81.979 146.489 C 90.849 150.984, 97.568 152.006, 107.166 150.319 C 120.908 147.903, 122.963 147.115, 128.136 142.276 C 139.107 132.014, 144.339 114.167, 141.281 97.441 C 140.041 90.661, 134.566 78.072, 130.870 73.500 C 129.536 71.850, 127.149 68.574, 125.565 66.220 C 122.431 61.560, 115.293 55.856, 109.640 53.494 C 106.241 52.074, 97.218 51.589, 94 52.654 M 93.500 56.463 C 90.744 57.724, 91.330 57.823, 100.693 57.673 C 109.299 57.535, 110.545 57.320, 108.693 56.290 C 105.762 54.661, 97.226 54.758, 93.500 56.463 M 94.500 63.369 C 86.249 67.246, 77.418 74.580, 73.510 80.801 C 67.829 89.844, 65.601 98.553, 66.324 108.887 C 67.067 119.495, 68.059 123.030, 72.232 129.938 C 75.731 135.731, 83.249 141.693, 90.732 144.609 C 94.479 146.069, 95.665 146.102, 101.086 144.899 C 106.164 143.773, 107.960 142.770, 111.611 139.021 C 114.033 136.534, 116.266 133.713, 116.574 132.750 C 117.335 130.375, 120 130.524, 120 132.941 C 120 138.332, 124.311 135.695, 129.056 127.402 C 133.452 119.719, 136 111.459, 136 104.892 C 136 93.742, 128.755 77.273, 119.815 68.099 C 112.808 60.910, 103.453 59.162, 94.500 63.369 M 80.973 65.520 C 77.797 67.863, 74.675 71.713, 76.632 70.873 C 78.622 70.019, 85.927 64.442, 85.962 63.750 C 86.031 62.397, 84.443 62.960, 80.973 65.520 M 63.222 85.720 C 60.840 91.272, 58.876 101, 60.137 101 C 60.611 101, 61.016 100.662, 61.035 100.250 C 61.054 99.838, 62.137 95.450, 63.441 90.500 C 64.746 85.550, 65.692 81.374, 65.543 81.220 C 65.394 81.065, 64.350 83.090, 63.222 85.720" stroke="none" fill="black" fill-rule="evenodd"/>
</svg>