<svg xmlns="http://www.w3.org/2000/svg" width="200" height="200" viewBox="0 0 200 200" version="1.1">
	<path d="M 117.953 53.807 C 117.154 54.050, 115.375 55.260, 114 56.494 C 112.625 57.728, 107.788 61.254, 103.251 64.328 C 98.715 67.402, 93.315 71.445, 91.251 73.314 C 86.636 77.494, 75.861 86.829, 74.500 87.827 C 73.950 88.230, 71.700 89.882, 69.500 91.496 C 59.448 98.875, 55.374 102.998, 48.923 112.320 C 45.116 117.823, 42 122.667, 42 123.083 C 42 123.500, 47.288 129.164, 53.751 135.670 C 67.776 149.789, 73.405 156.431, 80.092 166.750 C 83.166 171.494, 85.525 171.424, 91.668 166.405 C 93.961 164.532, 96.211 162.997, 96.668 162.993 C 98.043 162.982, 111.215 154.461, 115.426 150.859 C 117.586 149.011, 127.936 139.112, 138.426 128.861 C 148.917 118.609, 160.261 107.584, 163.635 104.361 C 170.366 97.930, 172.071 95.322, 171.124 92.907 C 170.164 90.456, 162.393 82, 161.102 82 C 160.471 82, 158.053 80.282, 155.728 78.182 C 153.402 76.082, 149.925 73.291, 148 71.980 C 146.075 70.669, 144.275 69.280, 144 68.894 C 142.649 66.997, 119.214 53.423, 117.953 53.807 M 113.372 66.314 C 105.477 71.034, 99.709 75.527, 89.399 84.985 C 85.493 88.568, 79.702 93.300, 76.530 95.500 C 66.560 102.414, 56.455 113.292, 54.004 119.750 L 52.257 124.350 58.895 130.925 C 65.900 137.865, 79.468 153.513, 81.999 157.573 C 82.823 158.895, 84.078 160.200, 84.788 160.472 C 86.194 161.012, 89.331 159.451, 92.060 156.856 C 93.011 155.951, 96.199 154.004, 99.144 152.528 C 107.094 148.546, 112.946 143.749, 129 128.060 C 136.975 120.266, 147.887 109.655, 153.250 104.481 C 163.932 94.173, 164.899 91.987, 160.006 89.203 C 158.360 88.267, 157.010 86.938, 157.006 86.250 C 157.003 85.563, 156.662 84.999, 156.250 84.998 C 155.838 84.996, 153.925 83.633, 152 81.967 C 150.075 80.301, 145.214 76.815, 141.197 74.219 C 137.180 71.624, 132.230 68.421, 130.197 67.102 C 121.873 61.701, 121.144 61.667, 113.372 66.314" stroke="none" fill="black" fill-rule="evenodd"/>
</svg>