<svg xmlns="http://www.w3.org/2000/svg" width="200" height="200" viewBox="0 0 200 200" version="1.1">
	<path d="M 0.812 0.683 C 1.534 0.972, 2.397 0.936, 2.729 0.604 C 3.061 0.272, 2.471 0.036, 1.417 0.079 C 0.252 0.127, 0.015 0.364, 0.812 0.683 M 113.500 59.896 C 98.028 65.184, 85.233 70.091, 71.312 76.075 C 66.259 78.248, 60.830 80.284, 59.248 80.600 C 55.591 81.332, 53.369 84.534, 55.084 86.601 C 55.743 87.395, 57.066 87.796, 58.025 87.492 C 59.177 87.127, 61.624 88.558, 65.248 91.720 C 68.263 94.349, 76.753 101.739, 84.115 108.141 C 91.477 114.544, 99.506 121.857, 101.958 124.391 C 104.410 126.926, 107.201 129, 108.160 129 C 110.263 129, 116.358 119.008, 118.403 112.207 C 124.656 91.423, 125.899 87.077, 126.469 84 C 126.825 82.075, 128.273 75.462, 129.686 69.304 C 132.359 57.660, 132.282 54.962, 129.281 55.056 C 128.302 55.086, 121.200 57.264, 113.500 59.896 M 113.500 64.405 C 104.843 67.316, 85.080 75.202, 69.860 81.818 C 67.308 82.927, 64.952 84.269, 64.623 84.801 C 63.907 85.959, 76.385 98.242, 91.381 111.141 C 108.941 126.246, 107.569 125.723, 111.164 118.682 C 115.228 110.723, 125.945 71.915, 126.394 63.531 C 126.553 60.577, 124.463 60.718, 113.500 64.405" stroke="none" fill="black" fill-rule="evenodd"/>
</svg>