<?xml version="1.0" encoding="UTF-8"?>
<svg id="a" data-name="Ebene_1" xmlns="http://www.w3.org/2000/svg" viewBox="0 0 363.1262 251.6413">
  <defs>
    <style>
      .b {
        fill: none;
        stroke: #000;
        stroke-miterlimit: 10;
        stroke-width: 4px;
      }
    </style>
  </defs>
  <path class="b" d="M93.8031,18.0486c-14.2213-4.4069-27.8867,8.9489-33.9382,22.552-7.8525,17.6514-9.4831,37.3587-10.5739,56.6471-1.0753,19.0157-1.6765,38.4916,3.9793,56.6786,11.6115,37.3383,48.5579,62.7285,86.986,69.957s78.1173-.9082,115.4055-12.6794c20.4355-6.4512,43.1216-16.6496,49.0705-37.2369,5.0125-17.3469-4.6336-36.3564-19.0427-47.2384s-32.6477-15.1933-50.4571-18.1708c-12.8159-2.1426-26.9785-3.4758-37.8812,3.5931-4.3842,2.8426-7.8782,6.8488-11.9818,10.0833-11.4,8.9856-26.5554,11.3844-41.0261,12.5253-29.4912,2.3251-59.2917.6949-88.3532-4.8333-12.2527-2.3307-24.649-5.4677-35.0561-12.3418S2.3168,99.4499,2.0093,86.9813c-.2984-12.1005,6.6296-23.1403,14.1587-32.6179C39.4205,25.0933,73.8647,1.7576,111.2306,2.8588c2.3038.0679,4.716.2621,6.6618,1.4974,2.8486,1.8083,3.9925,5.3666,4.5917,8.6871,4.3196,23.9392-8.0782,51.7916,6.4187,71.3257,4.9035,6.6073,12.1995,10.9657,19.429,14.8944,11.0981,6.0309,22.5189,11.468,34.1972,16.2803,10.7542,4.4315,22.9801,9.5647,26.8291,20.5409,3.3592,9.5794-1.1113,20.0921-6.5915,28.6371-10.3598,16.1533-24.7298,29.7133-41.4565,39.1193-22.3439,12.5649-48.3824,17.6401-70.2739,30.9775,16.8222,10.9334,37.9136,12.2659,57.9515,13.2718,47.2838,2.3735,96.3436,4.4643,140.1909-13.3909,12.277-4.9993,24.0769-11.6104,33.5383-20.8947,14.6288-14.3549,22.6729-34.0006,29.3779-53.3683,5.0922-14.7089,9.6898-29.9829,8.9535-45.5309-.5429-11.4639-3.9694-22.5783-7.6182-33.4595-8.9373-26.6519-20.8769-54.6552-44.8977-69.2565-26.3882-16.0403-60.9417-11.3849-88.8574,1.8189-7.2455,3.427-14.392,7.5005-19.6538,13.5465-10.9235,12.5516-11.697,30.861-19.0249,45.7998-10.8227,22.0634-34.2984,34.2707-54.3759,48.4418-33.2383,23.4602-60.1221,55.8346-77.0759,92.8175"/>
</svg>