<?xml version="1.0" encoding="UTF-8"?>
<svg id="a" data-name="Ebene_1" xmlns="http://www.w3.org/2000/svg" viewBox="0 0 584.9112 196.2079">
  <path d="M563.2099,4.6557l17.134,110.1697c-180.6301,28.0635-364.1145,54.0105-545.4062,77.1265-.971.1238-2.0925.2559-3.1142.2559-1.258,0-2.1392-.1994-2.6937-.6095-.987-.7302-1.5687-2.5551-2.1255-4.5206-5.9008-20.8306-11.1616-42.1388-15.6364-63.3327-.4909-2.3249-1.3052-5.2156-2.2482-8.5629-3.1464-11.1695-8.4125-29.8638-2.3791-35.8466,5.2402-5.1963,23.9237-5.1963,30.0633-5.1963,3.6849,0,7.2604.0707,10.7181.1393,2.9549.0585,5.7461.1137,8.2107.1137,2.2628,0,3.9927-.0456,5.4444-.1434,7.0413-.4744,14.2377-1.1197,21.1973-1.7437,13.8959-1.246,28.265-2.5344,42.1617-2.5344h.1346l.1343-.0091c27.3001-1.8395,55.5296-3.7416,83.2472-6.5708,60.1417-6.139,120.5638-16.9112,178.9966-27.3287l176.1611-31.4065M566.5338,0c-60.0624,10.7081-120.1248,21.4162-180.1871,32.1243-59.3367,10.5786-118.7399,21.1667-178.7007,27.2872-27.6472,2.8221-55.3818,4.6909-83.1099,6.5593-21.0862,0-42.5818,2.8691-63.6279,4.2872-1.4618.0985-3.2109.1343-5.1755.1343-5.2229,0-11.9762-.253-18.9288-.253-13.3336,0-27.4074.9295-32.8798,6.3559-9.6356,9.5547,1.2164,37.1182,3.53,48.0762,4.5117,21.3685,9.7492,42.5837,15.7015,63.5965.6999,2.4706,1.531,5.1193,3.5954,6.6463,1.454,1.0754,3.2352,1.3937,5.0723,1.3937,1.2081,0,2.4403-.1376,3.6201-.288,183.5009-23.3977,366.6798-49.3198,549.4676-77.7564-6.1257-39.3878-12.2515-78.7757-18.3773-118.1635h0Z"/>
</svg>