<svg xmlns="http://www.w3.org/2000/svg" width="200" height="200" viewBox="0 0 200 200" version="1.1">
	<path d="M 87 44.497 C 78.793 46.266, 72.433 49.702, 67.964 54.779 C 59.718 64.146, 49.403 89.072, 47.594 104 C 46.536 112.729, 48.529 123.118, 53.538 134.985 C 59.596 149.336, 62.361 151.936, 75.500 155.638 C 89.618 159.616, 111.810 157.321, 124.955 150.523 C 128.801 148.534, 135.405 142.467, 138.352 138.214 C 145.203 128.328, 148.375 109.723, 145.606 95.664 C 142.981 82.332, 134.743 65.915, 126.697 57.982 C 122.120 53.468, 111.415 47.389, 105 45.660 C 96.729 43.431, 93.049 43.193, 87 44.497 M 88.003 47.738 C 82.744 48.719, 73.427 53.746, 71 56.911 C 69.625 58.705, 68.050 60.696, 67.500 61.336 C 65.301 63.895, 57.698 80.745, 54.955 89.137 C 49.174 106.827, 50.166 120.589, 58.460 137.772 C 62.572 146.292, 63.289 147.195, 67.311 148.919 C 82.279 155.335, 107.854 154.649, 122 147.452 C 127.701 144.551, 136.344 135.684, 138.426 130.601 C 139.304 128.457, 140.747 123.957, 141.632 120.601 C 147.426 98.634, 135.763 66.844, 117.597 55.091 C 107.428 48.512, 97.320 46, 88.003 47.738" stroke="none" fill="black" fill-rule="evenodd"/>
</svg>