<?xml version="1.0" encoding="UTF-8"?>
<svg id="a" data-name="Ebene_1" xmlns="http://www.w3.org/2000/svg" viewBox="0 0 264.6149 316.1369">
  <defs>
    <style>
      .b {
        fill: none;
        stroke: #000;
        stroke-miterlimit: 10;
        stroke-width: 4px;
      }
    </style>
  </defs>
  <path class="b" d="M175.8826,8.1322c-33.6772,7.766-66.2405,20.3456-96.3924,37.2373-20.3487,11.3998-39.951,25.0861-53.9732,43.7249C8.4362,111.7988.7282,140.9155,2.1704,169.2909s11.6926,55.9518,27.3143,79.6838c6.5567,9.9608,14.1201,19.3676,23.3309,26.9419,14.18,11.6606,31.6755,18.5232,49.2625,23.7899,28.2856,8.4705,57.663,13.2877,87.1726,14.2945,17.6802.6032,36.4234-.4638,51.2018-10.1877,14.1447-9.3069,22.8506-26.3263,22.1198-43.2425s-10.8721-33.1213-25.7668-41.1736c-13.9775-7.5565-30.5523-7.9114-46.4064-8.9693-27.5439-1.8379-54.9102-6.3274-81.5975-13.3863-3.2563-.8613-6.6751-1.8613-8.9875-4.3104-2.0995-2.2237-2.9706-5.3252-3.4903-8.3389-4.0832-23.6785,9.1807-46.7759,24.0158-65.6773,13.7114-17.4697,29.2995-33.5661,47.1027-46.8416,14.0215-10.4555,29.2824-19.036,44.5215-27.5547,10.2686-5.7402,24.4005-11.0334,27.8751-23.6894,8.1774-29.7861-49.6883-15.7071-63.9562-12.4969Z"/>
</svg>