<?xml version="1.0" encoding="UTF-8"?>
<svg id="a" data-name="Ebene_1" xmlns="http://www.w3.org/2000/svg" viewBox="0 0 457.9 346.3185">
  <defs>
    <style>
      .b {
        fill: none;
        stroke: #000;
        stroke-miterlimit: 10;
        stroke-width: 4px;
      }
    </style>
  </defs>
  <path class="b" d="M255.401.491c11.2366,44.401,22.4732,88.8021,33.7098,133.2031.9715,3.8388,2.066,7.8944,4.9375,10.6211,2.4239,2.3017,5.7654,3.3121,8.9832,4.2173,47.6092,13.394,96.8438,19.8835,145.8789,26.3326-49.429,16.1603-98.858,32.3206-148.2869,48.4809-2.995.9792-6.1194,2.0378-8.2955,4.3168-2.3953,2.5085-3.2466,6.075-3.965,9.4682-7.1914,33.9646-10.4438,68.7615-9.6712,103.4705-28.2415-34.1952-51.0718-72.8501-67.3843-114.0907-66.9128,17.4861-135.9622,26.78-205.117,27.6084,41.8452-30.8104,83.776-61.5047,125.7918-92.082,20.5876-14.9828,40.9143-30.486,61.9466-44.8377,16.0507-10.9523,22.7201-24.9768,31.3818-42.4791,6.1242-12.3747,11.771-24.9855,16.9267-37.7938,2.9976-7.4469,15.1222-28.7012,13.1636-36.4355Z"/>
</svg>